Coordinates
version=1
nRows=30
nColumns=21
inDegrees=yes

Units are S.I. units (second, meters, Newtons, ...)
Angles are in degrees.

endheader
time	Thorax_pitch	Thorax_roll	Thorax_yaw	Thorax_Tx	Thorax_Ty	Thorax_Tz	L_shoulder_flex-ext	L_shoulder_adb-add	L_shoulder_LAR	L_elbow_flex-ext	L_forearm_pron-sup	L_wrist_flex-ext	L_MCP_flex-ext	R_shoulder_flex-ext	R_shoulder_adb-add	R_shoulder_LAR	R_elbow_flex-ext	R_forearm_pron-sup	R_wrist_flex-ext	R_MCP_flex-ext
      0.16200000	      0.00000000	      0.00000000	    -16.42137177	      0.19974092	      0.28843909	      0.06883429	      0.00000000	      0.00000000	      0.00000000	    -67.49998635	     49.99999299	      0.00000000	      0.00000000	     19.30504586	     10.25835596	     -1.78547967	    -97.36838216	    144.26736521	    -80.86777767	     25.86077479
      0.16210000	      0.00000000	      0.00000000	    -16.44386694	      0.19982811	      0.28839155	      0.06887112	      0.00000000	      0.00000000	      0.00000000	    -67.49998635	     49.99999299	      0.00000000	      0.00000000	     19.31333148	     10.24352002	     -1.74310174	    -97.35700439	    144.29950476	    -80.84917642	     25.90674258
      0.16220000	      0.00000000	      0.00000000	    -16.48999900	      0.19991607	      0.28835505	      0.06894112	      0.00000000	      0.00000000	      0.00000000	    -67.49998635	     49.99999299	      0.00000000	      0.00000000	     19.26807921	     10.27804697	     -1.73597451	    -97.40704685	    143.91856875	    -79.25078997	     28.53641915
      0.16230000	      0.00000000	      0.00000000	    -16.48372259	      0.20001086	      0.28830847	      0.06894017	      0.00000000	      0.00000000	      0.00000000	    -67.49998635	     49.99999299	      0.00000000	      0.00000000	     19.31559255	     10.21385540	     -1.65889318	    -97.31221839	    144.33712876	    -80.87029884	     25.99843871
      0.16240000	      0.00000000	      0.00000000	    -16.60147877	      0.20010462	      0.28824540	      0.06898152	      0.00000000	      0.00000000	      0.00000000	    -67.49998635	     49.99999299	      0.00000000	      0.00000000	     19.15092621	     10.22078164	     -1.59533200	    -97.30475939	    144.18485525	    -80.39658052	     26.91911729
      0.16250000	      0.00000000	      0.00000000	    -16.48405716	      0.20019437	      0.28822240	      0.06899397	      0.00000000	      0.00000000	      0.00000000	    -67.49998635	     49.99999299	      0.00000000	      0.00000000	     19.48218749	     10.28128587	     -1.68949574	    -97.38369047	    144.40070675	    -80.18129441	     26.89804500
      0.16260000	      0.00000000	      0.00000000	    -16.56977666	      0.20028477	      0.28816947	      0.06904450	      0.00000000	      0.00000000	      0.00000000	    -67.49998635	     49.99999299	      0.00000000	      0.00000000	     19.34971089	     10.23257591	     -1.61674660	    -97.32250997	    144.39232195	    -80.34944729	     26.73426257
      0.16270000	      0.00000000	      0.00000000	    -16.57350469	      0.20037000	      0.28814047	      0.06907612	      0.00000000	      0.00000000	      0.00000000	    -67.49998635	     49.99999299	      0.00000000	      0.00000000	     19.31494871	     10.19444064	     -1.47931724	    -97.26719070	    144.40544101	    -80.87607057	     26.12650407
      0.16280000	      0.00000000	      0.00000000	    -16.71738762	      0.20046912	      0.28808181	      0.06908267	      0.00000000	      0.00000000	      0.00000000	    -67.49998635	     49.99999299	      0.00000000	      0.00000000	     18.99979220	     10.31385053	     -1.24672381	    -97.41011253	    143.88728963	    -80.00966058	     27.79065334
      0.16290000	      0.00000000	      0.00000000	    -16.60441530	      0.20056998	      0.28806912	      0.06914131	      0.00000000	      0.00000000	      0.00000000	    -67.49998635	     49.99999299	      0.00000000	      0.00000000	     19.37965824	     10.17024301	     -1.43332117	    -97.22006889	    144.44075386	    -80.73029395	     26.50569726
      0.16300000	      0.00000000	      0.00000000	    -16.60546202	      0.20063651	      0.28803496	      0.06919025	      0.00000000	      0.00000000	      0.00000000	    -67.49998635	     49.99999299	      0.00000000	      0.00000000	     19.37470247	     10.20081555	     -1.38565169	    -97.28033211	    144.23022929	    -79.88638989	     27.92258853
      0.16310000	      0.00000000	      0.00000000	    -16.76409071	      0.20074175	      0.28797921	      0.06925426	      0.00000000	      0.00000000	      0.00000000	    -67.49998635	     49.99999299	      0.00000000	      0.00000000	     19.09501679	     10.10135869	     -1.21999467	    -97.12801750	    144.28206765	    -80.80198286	     26.59426354
      0.16320000	      0.00000000	      0.00000000	    -16.64611125	      0.20082890	      0.28792694	      0.06924643	      0.00000000	      0.00000000	      0.00000000	    -67.49998635	     49.99999299	      0.00000000	      0.00000000	     19.44987052	     10.18198808	     -1.35480203	    -97.25354104	    144.49923847	    -80.35587635	     27.03531597
      0.16330000	      0.00000000	      0.00000000	    -16.88395663	      0.20093482	      0.28789733	      0.06930885	      0.00000000	      0.00000000	      0.00000000	    -67.49998635	     49.99999299	      0.00000000	      0.00000000	     19.15533854	     10.03467401	     -1.44762796	    -96.97348371	    144.49996640	    -79.98495458	     28.24436013
      0.16340000	      0.00000000	      0.00000000	    -16.71069844	      0.20100662	      0.28785874	      0.06931850	      0.00000000	      0.00000000	      0.00000000	    -67.49998635	     49.99999299	      0.00000000	      0.00000000	     19.38779508	     10.12492640	     -1.22364684	    -97.16424697	    144.55072823	    -80.75313259	     26.62631963
      0.16350000	      0.00000000	      0.00000000	    -16.74042609	      0.20109996	      0.28781159	      0.06934866	      0.00000000	      0.00000000	      0.00000000	    -67.49998635	     49.99999299	      0.00000000	      0.00000000	     19.34619156	     10.10811041	     -1.13794288	    -97.13122800	    144.55720502	    -80.89163612	     26.51837793
      0.16360000	      0.00000000	      0.00000000	    -16.85233857	      0.20121097	      0.28775200	      0.06937838	      0.00000000	      0.00000000	      0.00000000	    -67.49998635	     49.99999299	      0.00000000	      0.00000000	     19.20798340	     10.08623358	     -1.07609248	    -97.06798620	    144.57705384	    -81.02478188	     26.52418865
      0.16370000	      0.00000000	      0.00000000	    -16.80688195	      0.20128823	      0.28774700	      0.06943533	      0.00000000	      0.00000000	      0.00000000	    -67.49998635	     49.99999299	      0.00000000	      0.00000000	     19.28233484	     10.09871233	     -1.02670256	    -97.10374243	    144.32169587	    -80.13317724	     28.02037627
      0.16380000	      0.00000000	      0.00000000	    -16.79074237	      0.20138659	      0.28769336	      0.06945034	      0.00000000	      0.00000000	      0.00000000	    -67.49998635	     49.99999299	      0.00000000	      0.00000000	     19.32484831	     10.02663886	     -0.88470880	    -97.00904541	    144.51181191	    -81.24201009	     26.55489997
      0.16390000	      0.00000000	      0.00000000	    -16.82312527	      0.20146155	      0.28764741	      0.06949202	      0.00000000	      0.00000000	      0.00000000	    -67.49998635	     49.99999299	      0.00000000	      0.00000000	     19.36544628	     10.05900153	     -0.96971541	    -97.05551889	    144.64033365	    -80.91940794	     26.66639855
      0.16400000	      0.00000000	      0.00000000	    -16.83199742	      0.20155126	      0.28761137	      0.06954007	      0.00000000	      0.00000000	      0.00000000	    -67.49998635	     49.99999299	      0.00000000	      0.00000000	     19.39138951	     10.02395138	     -0.92914258	    -97.01397752	    144.66314393	    -80.95253591	     26.65400438
      0.16410000	      0.00000000	      0.00000000	    -16.78493893	      0.20166324	      0.28761392	      0.06955918	      0.00000000	      0.00000000	      0.00000000	    -67.49998635	     49.99999299	      0.00000000	      0.00000000	     19.44082712	     10.01950178	     -0.89838616	    -96.86606252	    144.68305293	    -80.53022424	     27.92476455
      0.16420000	      0.00000000	      0.00000000	    -16.90471758	      0.20174607	      0.28749433	      0.06960032	      0.00000000	      0.00000000	      0.00000000	    -67.49998635	     49.99999299	      0.00000000	      0.00000000	     19.35160000	     10.02404184	     -0.83236142	    -97.00844893	    144.70139707	    -80.93800414	     26.78664126
      0.16430000	      0.00000000	      0.00000000	    -16.90989061	      0.20184292	      0.28744696	      0.06965455	      0.00000000	      0.00000000	      0.00000000	    -67.49998635	     49.99999299	      0.00000000	      0.00000000	     19.45342846	     10.03306996	     -0.88971519	    -97.03543166	    144.59329157	    -80.04328907	     28.21323219
      0.16440000	      0.00000000	      0.00000000	    -17.12510234	      0.20187516	      0.28729924	      0.06950372	      0.00000000	      0.00000000	      0.00000000	    -67.49998635	     49.99999299	      0.00000000	      0.00000000	     18.76480196	     10.71417438	     -0.30418141	    -97.96761024	    143.34682425	    -78.24577248	     30.43877457
      0.16450000	      0.00000000	      0.00000000	    -17.01039420	      0.20202879	      0.28733696	      0.06970436	      0.00000000	      0.00000000	      0.00000000	    -67.49998635	     49.99999299	      0.00000000	      0.00000000	     19.29801018	      9.99743844	     -0.68430810	    -96.96242518	    144.74716281	    -80.96666134	     26.93085819
      0.16460000	      0.00000000	      0.00000000	    -16.94559036	      0.20211998	      0.28731027	      0.06976059	      0.00000000	      0.00000000	      0.00000000	    -67.49998635	     49.99999299	      0.00000000	      0.00000000	     19.48510023	     10.03235801	     -0.73834960	    -97.02817991	    144.58674527	    -79.69977119	     28.88530611
      0.16470000	      0.00000000	      0.00000000	    -17.00617342	      0.20221257	      0.28723918	      0.06978110	      0.00000000	      0.00000000	      0.00000000	    -67.49998635	     49.99999299	      0.00000000	      0.00000000	     19.38354770	      9.97587487	     -0.59670291	    -96.94987602	    144.81661832	    -80.96108245	     26.98390382
      0.16480000	      0.00000000	      0.00000000	    -17.17318349	      0.20231283	      0.28715507	      0.06983005	      0.00000000	      0.00000000	      0.00000000	    -67.49998635	     49.99999299	      0.00000000	      0.00000000	     19.16985822	      9.93702357	     -0.57336136	    -96.87236383	    144.92428059	    -81.12274911	     26.77973788
      0.16490000	      0.00000000	      0.00000000	    -16.99965274	      0.20240148	      0.28715668	      0.06988187	      0.00000000	      0.00000000	      0.00000000	    -67.49998635	     49.99999299	      0.00000000	      0.00000000	     19.47232646	      9.98549822	     -0.52936813	    -96.98217022	    144.57810017	    -79.75210608	     29.09469335
